<mxfile host="app.diagrams.net" modified="2022-04-06T02:39:01.709Z" agent="5.0 (Windows NT 10.0; Win64; x64) AppleWebKit/537.36 (KHTML, like Gecko) Chrome/100.0.4896.75 Safari/537.36" etag="RLMfvt2KHBsc2i3I3cyY" version="17.4.0" type="github">
  <diagram id="6a731a19-8d31-9384-78a2-239565b7b9f0" name="Page-1">
    <mxGraphModel dx="1422" dy="794" grid="1" gridSize="10" guides="1" tooltips="1" connect="1" arrows="1" fold="1" page="1" pageScale="1" pageWidth="827" pageHeight="1169" background="none" math="0" shadow="0">
      <root>
        <mxCell id="0" />
        <mxCell id="1" parent="0" />
        <mxCell id="jgQcP7is1KuD3QYu7mgT-2333" value="" style="ellipse;whiteSpace=wrap;html=1;" vertex="1" parent="1">
          <mxGeometry x="850" y="130" width="120" height="80" as="geometry" />
        </mxCell>
        <mxCell id="jgQcP7is1KuD3QYu7mgT-2267" value="" style="whiteSpace=wrap;html=1;aspect=fixed;" vertex="1" parent="1">
          <mxGeometry x="112" y="400" width="613.5" height="613.5" as="geometry" />
        </mxCell>
        <mxCell id="jgQcP7is1KuD3QYu7mgT-2318" value="" style="ellipse;whiteSpace=wrap;html=1;" vertex="1" parent="1">
          <mxGeometry x="258" y="535" width="80" height="30" as="geometry" />
        </mxCell>
        <mxCell id="jgQcP7is1KuD3QYu7mgT-2312" value="" style="ellipse;whiteSpace=wrap;html=1;" vertex="1" parent="1">
          <mxGeometry x="570" y="330" width="90" height="70" as="geometry" />
        </mxCell>
        <mxCell id="jgQcP7is1KuD3QYu7mgT-2307" value="" style="ellipse;whiteSpace=wrap;html=1;" vertex="1" parent="1">
          <mxGeometry x="200" y="340" width="90" height="50" as="geometry" />
        </mxCell>
        <mxCell id="jgQcP7is1KuD3QYu7mgT-2299" value="" style="ellipse;whiteSpace=wrap;html=1;" vertex="1" parent="1">
          <mxGeometry x="231" y="620" width="399" height="118.5" as="geometry" />
        </mxCell>
        <mxCell id="jgQcP7is1KuD3QYu7mgT-2291" value="" style="whiteSpace=wrap;html=1;aspect=fixed;" vertex="1" parent="1">
          <mxGeometry x="605.5" y="110" width="190" height="190" as="geometry" />
        </mxCell>
        <mxCell id="jgQcP7is1KuD3QYu7mgT-2290" value="" style="whiteSpace=wrap;html=1;aspect=fixed;" vertex="1" parent="1">
          <mxGeometry x="35.5" y="110" width="190" height="190" as="geometry" />
        </mxCell>
        <mxCell id="jgQcP7is1KuD3QYu7mgT-2257" value="" style="shape=mxgraph.cisco.switches.layer_2_remote_switch;sketch=0;html=1;pointerEvents=1;dashed=0;fillColor=#036897;strokeColor=#ffffff;strokeWidth=2;verticalLabelPosition=bottom;verticalAlign=top;align=center;outlineConnect=0;" vertex="1" parent="1">
          <mxGeometry x="80" y="120" width="101" height="50" as="geometry" />
        </mxCell>
        <mxCell id="jgQcP7is1KuD3QYu7mgT-2258" value="" style="shape=mxgraph.cisco.switches.layer_2_remote_switch;sketch=0;html=1;pointerEvents=1;dashed=0;fillColor=#036897;strokeColor=#ffffff;strokeWidth=2;verticalLabelPosition=bottom;verticalAlign=top;align=center;outlineConnect=0;" vertex="1" parent="1">
          <mxGeometry x="80" y="230" width="101" height="50" as="geometry" />
        </mxCell>
        <mxCell id="jgQcP7is1KuD3QYu7mgT-2263" value="" style="shape=mxgraph.cisco.switches.layer_2_remote_switch;sketch=0;html=1;pointerEvents=1;dashed=0;fillColor=#036897;strokeColor=#ffffff;strokeWidth=2;verticalLabelPosition=bottom;verticalAlign=top;align=center;outlineConnect=0;" vertex="1" parent="1">
          <mxGeometry x="650" y="120" width="101" height="50" as="geometry" />
        </mxCell>
        <mxCell id="jgQcP7is1KuD3QYu7mgT-2264" value="" style="shape=mxgraph.cisco.switches.layer_2_remote_switch;sketch=0;html=1;pointerEvents=1;dashed=0;fillColor=#036897;strokeColor=#ffffff;strokeWidth=2;verticalLabelPosition=bottom;verticalAlign=top;align=center;outlineConnect=0;" vertex="1" parent="1">
          <mxGeometry x="650" y="240" width="101" height="50" as="geometry" />
        </mxCell>
        <mxCell id="jgQcP7is1KuD3QYu7mgT-2265" value="MGNT&lt;br&gt;" style="text;html=1;align=center;verticalAlign=middle;resizable=0;points=[];autosize=1;strokeColor=none;fillColor=none;" vertex="1" parent="1">
          <mxGeometry x="105.5" y="90" width="50" height="20" as="geometry" />
        </mxCell>
        <mxCell id="jgQcP7is1KuD3QYu7mgT-2266" value="Public&lt;br&gt;" style="text;html=1;align=center;verticalAlign=middle;resizable=0;points=[];autosize=1;strokeColor=none;fillColor=none;" vertex="1" parent="1">
          <mxGeometry x="675.5" y="90" width="50" height="20" as="geometry" />
        </mxCell>
        <mxCell id="jgQcP7is1KuD3QYu7mgT-2271" value="" style="shape=mxgraph.cisco.storage.relational_database;sketch=0;html=1;pointerEvents=1;dashed=0;fillColor=#036897;strokeColor=#ffffff;strokeWidth=2;verticalLabelPosition=bottom;verticalAlign=top;align=center;outlineConnect=0;" vertex="1" parent="1">
          <mxGeometry x="381" y="880" width="66" height="50" as="geometry" />
        </mxCell>
        <mxCell id="jgQcP7is1KuD3QYu7mgT-2276" value="" style="shape=mxgraph.cisco.servers.www_server;sketch=0;html=1;pointerEvents=1;dashed=0;fillColor=#036897;strokeColor=#ffffff;strokeWidth=2;verticalLabelPosition=bottom;verticalAlign=top;align=center;outlineConnect=0;" vertex="1" parent="1">
          <mxGeometry x="378" y="628.5" width="72" height="110" as="geometry" />
        </mxCell>
        <mxCell id="jgQcP7is1KuD3QYu7mgT-2277" value="" style="shape=mxgraph.cisco.servers.www_server;sketch=0;html=1;pointerEvents=1;dashed=0;fillColor=#036897;strokeColor=#ffffff;strokeWidth=2;verticalLabelPosition=bottom;verticalAlign=top;align=center;outlineConnect=0;" vertex="1" parent="1">
          <mxGeometry x="530" y="628.5" width="86" height="110" as="geometry" />
        </mxCell>
        <mxCell id="jgQcP7is1KuD3QYu7mgT-2278" value="" style="shape=mxgraph.cisco.servers.www_server;sketch=0;html=1;pointerEvents=1;dashed=0;fillColor=#036897;strokeColor=#ffffff;strokeWidth=2;verticalLabelPosition=bottom;verticalAlign=top;align=center;outlineConnect=0;" vertex="1" parent="1">
          <mxGeometry x="250" y="638.5" width="70" height="100" as="geometry" />
        </mxCell>
        <mxCell id="jgQcP7is1KuD3QYu7mgT-2279" value="Storage&lt;br&gt;" style="text;html=1;align=center;verticalAlign=middle;resizable=0;points=[];autosize=1;strokeColor=none;fillColor=none;" vertex="1" parent="1">
          <mxGeometry x="375.5" y="910" width="60" height="20" as="geometry" />
        </mxCell>
        <mxCell id="jgQcP7is1KuD3QYu7mgT-2280" value="KVM 1" style="text;html=1;align=center;verticalAlign=middle;resizable=0;points=[];autosize=1;strokeColor=none;fillColor=none;" vertex="1" parent="1">
          <mxGeometry x="250" y="750" width="50" height="20" as="geometry" />
        </mxCell>
        <mxCell id="jgQcP7is1KuD3QYu7mgT-2282" value="KVM&amp;nbsp; 3" style="text;html=1;align=center;verticalAlign=middle;resizable=0;points=[];autosize=1;strokeColor=none;fillColor=none;" vertex="1" parent="1">
          <mxGeometry x="540" y="750" width="50" height="20" as="geometry" />
        </mxCell>
        <mxCell id="jgQcP7is1KuD3QYu7mgT-2284" value="KVM2&amp;nbsp;" style="text;html=1;align=center;verticalAlign=middle;resizable=0;points=[];autosize=1;strokeColor=none;fillColor=none;" vertex="1" parent="1">
          <mxGeometry x="386" y="750" width="50" height="20" as="geometry" />
        </mxCell>
        <mxCell id="jgQcP7is1KuD3QYu7mgT-2286" value="" style="shape=mxgraph.cisco.security.firewall;sketch=0;html=1;pointerEvents=1;dashed=0;fillColor=#036897;strokeColor=#ffffff;strokeWidth=2;verticalLabelPosition=bottom;verticalAlign=top;align=center;outlineConnect=0;" vertex="1" parent="1">
          <mxGeometry x="300" y="410" width="30" height="67" as="geometry" />
        </mxCell>
        <mxCell id="jgQcP7is1KuD3QYu7mgT-2287" value="" style="shape=mxgraph.cisco.security.firewall;sketch=0;html=1;pointerEvents=1;dashed=0;fillColor=#036897;strokeColor=#ffffff;strokeWidth=2;verticalLabelPosition=bottom;verticalAlign=top;align=center;outlineConnect=0;" vertex="1" parent="1">
          <mxGeometry x="490" y="410" width="29" height="67" as="geometry" />
        </mxCell>
        <mxCell id="jgQcP7is1KuD3QYu7mgT-2288" value="" style="endArrow=classic;startArrow=classic;html=1;rounded=0;" edge="1" parent="1" source="jgQcP7is1KuD3QYu7mgT-2286" target="jgQcP7is1KuD3QYu7mgT-2287">
          <mxGeometry width="50" height="50" relative="1" as="geometry">
            <mxPoint x="590" y="380" as="sourcePoint" />
            <mxPoint x="640" y="330" as="targetPoint" />
          </mxGeometry>
        </mxCell>
        <mxCell id="jgQcP7is1KuD3QYu7mgT-2289" value="Haproxy" style="text;html=1;align=center;verticalAlign=middle;resizable=0;points=[];autosize=1;strokeColor=none;fillColor=none;" vertex="1" parent="1">
          <mxGeometry x="381" y="410" width="60" height="20" as="geometry" />
        </mxCell>
        <mxCell id="jgQcP7is1KuD3QYu7mgT-2292" value="" style="endArrow=classic;startArrow=classic;html=1;rounded=0;entryX=0.5;entryY=1;entryDx=0;entryDy=0;entryPerimeter=0;" edge="1" parent="1" source="jgQcP7is1KuD3QYu7mgT-2258" target="jgQcP7is1KuD3QYu7mgT-2257">
          <mxGeometry width="50" height="50" relative="1" as="geometry">
            <mxPoint x="105.5" y="230" as="sourcePoint" />
            <mxPoint x="155.5" y="180" as="targetPoint" />
          </mxGeometry>
        </mxCell>
        <mxCell id="jgQcP7is1KuD3QYu7mgT-2293" value="" style="endArrow=classic;startArrow=classic;html=1;rounded=0;" edge="1" parent="1" source="jgQcP7is1KuD3QYu7mgT-2264" target="jgQcP7is1KuD3QYu7mgT-2263">
          <mxGeometry width="50" height="50" relative="1" as="geometry">
            <mxPoint x="675.5" y="220" as="sourcePoint" />
            <mxPoint x="725.5" y="170" as="targetPoint" />
          </mxGeometry>
        </mxCell>
        <mxCell id="jgQcP7is1KuD3QYu7mgT-2295" value="" style="endArrow=classic;html=1;rounded=0;entryX=0.75;entryY=0.91;entryDx=0;entryDy=0;entryPerimeter=0;exitX=0.422;exitY=-0.005;exitDx=0;exitDy=0;exitPerimeter=0;" edge="1" parent="1" source="jgQcP7is1KuD3QYu7mgT-2299" target="jgQcP7is1KuD3QYu7mgT-2286">
          <mxGeometry width="50" height="50" relative="1" as="geometry">
            <mxPoint x="380" y="620" as="sourcePoint" />
            <mxPoint x="640" y="630" as="targetPoint" />
          </mxGeometry>
        </mxCell>
        <mxCell id="jgQcP7is1KuD3QYu7mgT-2296" value="" style="endArrow=classic;html=1;rounded=0;entryX=0;entryY=1;entryDx=0;entryDy=0;entryPerimeter=0;" edge="1" parent="1" target="jgQcP7is1KuD3QYu7mgT-2287">
          <mxGeometry width="50" height="50" relative="1" as="geometry">
            <mxPoint x="430" y="630" as="sourcePoint" />
            <mxPoint x="640" y="630" as="targetPoint" />
          </mxGeometry>
        </mxCell>
        <mxCell id="jgQcP7is1KuD3QYu7mgT-2300" value="" style="endArrow=classic;html=1;rounded=0;entryX=0;entryY=1;entryDx=0;entryDy=0;entryPerimeter=0;exitX=0.75;exitY=1;exitDx=0;exitDy=0;" edge="1" parent="1" source="jgQcP7is1KuD3QYu7mgT-2290" target="jgQcP7is1KuD3QYu7mgT-2286">
          <mxGeometry width="50" height="50" relative="1" as="geometry">
            <mxPoint x="170" y="370" as="sourcePoint" />
            <mxPoint x="220" y="320" as="targetPoint" />
          </mxGeometry>
        </mxCell>
        <mxCell id="jgQcP7is1KuD3QYu7mgT-2306" value="" style="endArrow=classic;html=1;rounded=0;entryX=0.971;entryY=0.995;entryDx=0;entryDy=0;entryPerimeter=0;" edge="1" parent="1" source="jgQcP7is1KuD3QYu7mgT-2286" target="jgQcP7is1KuD3QYu7mgT-2290">
          <mxGeometry width="50" height="50" relative="1" as="geometry">
            <mxPoint x="120" y="380" as="sourcePoint" />
            <mxPoint x="170" y="330" as="targetPoint" />
          </mxGeometry>
        </mxCell>
        <mxCell id="jgQcP7is1KuD3QYu7mgT-2309" value="port- channel&lt;br&gt;" style="text;html=1;align=center;verticalAlign=middle;resizable=0;points=[];autosize=1;strokeColor=none;fillColor=none;" vertex="1" parent="1">
          <mxGeometry x="258" y="320" width="90" height="20" as="geometry" />
        </mxCell>
        <mxCell id="jgQcP7is1KuD3QYu7mgT-2310" value="" style="endArrow=classic;html=1;rounded=0;entryX=0.203;entryY=1.011;entryDx=0;entryDy=0;entryPerimeter=0;" edge="1" parent="1" target="jgQcP7is1KuD3QYu7mgT-2291">
          <mxGeometry width="50" height="50" relative="1" as="geometry">
            <mxPoint x="519" y="430" as="sourcePoint" />
            <mxPoint x="569" y="380" as="targetPoint" />
          </mxGeometry>
        </mxCell>
        <mxCell id="jgQcP7is1KuD3QYu7mgT-2311" value="" style="endArrow=classic;html=1;rounded=0;exitX=0.676;exitY=0.995;exitDx=0;exitDy=0;exitPerimeter=0;entryX=0.75;entryY=0.91;entryDx=0;entryDy=0;entryPerimeter=0;" edge="1" parent="1" source="jgQcP7is1KuD3QYu7mgT-2291" target="jgQcP7is1KuD3QYu7mgT-2287">
          <mxGeometry width="50" height="50" relative="1" as="geometry">
            <mxPoint x="625.5" y="370" as="sourcePoint" />
            <mxPoint x="675.5" y="320" as="targetPoint" />
          </mxGeometry>
        </mxCell>
        <mxCell id="jgQcP7is1KuD3QYu7mgT-2314" value="port channel&lt;br&gt;" style="text;html=1;align=center;verticalAlign=middle;resizable=0;points=[];autosize=1;strokeColor=none;fillColor=none;" vertex="1" parent="1">
          <mxGeometry x="510" y="320" width="80" height="20" as="geometry" />
        </mxCell>
        <mxCell id="jgQcP7is1KuD3QYu7mgT-2315" value="" style="endArrow=classic;html=1;rounded=0;exitX=0.25;exitY=1;exitDx=0;exitDy=0;" edge="1" parent="1" source="jgQcP7is1KuD3QYu7mgT-2290" target="jgQcP7is1KuD3QYu7mgT-2299">
          <mxGeometry width="50" height="50" relative="1" as="geometry">
            <mxPoint x="90" y="390" as="sourcePoint" />
            <mxPoint x="140" y="340" as="targetPoint" />
          </mxGeometry>
        </mxCell>
        <mxCell id="jgQcP7is1KuD3QYu7mgT-2316" value="trunking&lt;br&gt;" style="text;html=1;align=center;verticalAlign=middle;resizable=0;points=[];autosize=1;strokeColor=none;fillColor=none;" vertex="1" parent="1">
          <mxGeometry x="171" y="545" width="60" height="20" as="geometry" />
        </mxCell>
        <mxCell id="jgQcP7is1KuD3QYu7mgT-2317" value="" style="endArrow=classic;html=1;rounded=0;exitX=0.294;exitY=0.041;exitDx=0;exitDy=0;exitPerimeter=0;entryX=0.039;entryY=1.021;entryDx=0;entryDy=0;entryPerimeter=0;" edge="1" parent="1" source="jgQcP7is1KuD3QYu7mgT-2299" target="jgQcP7is1KuD3QYu7mgT-2290">
          <mxGeometry width="50" height="50" relative="1" as="geometry">
            <mxPoint x="200" y="600" as="sourcePoint" />
            <mxPoint x="250" y="550" as="targetPoint" />
          </mxGeometry>
        </mxCell>
        <mxCell id="jgQcP7is1KuD3QYu7mgT-2323" value="bonding 10gbps&lt;br&gt;" style="text;html=1;align=center;verticalAlign=middle;resizable=0;points=[];autosize=1;strokeColor=none;fillColor=none;" vertex="1" parent="1">
          <mxGeometry x="440" y="710" width="100" height="20" as="geometry" />
        </mxCell>
        <mxCell id="jgQcP7is1KuD3QYu7mgT-2328" value="" style="endArrow=classic;startArrow=classic;html=1;rounded=0;" edge="1" parent="1" source="jgQcP7is1KuD3QYu7mgT-2277" target="jgQcP7is1KuD3QYu7mgT-2276">
          <mxGeometry width="50" height="50" relative="1" as="geometry">
            <mxPoint x="460" y="700" as="sourcePoint" />
            <mxPoint x="510" y="650" as="targetPoint" />
          </mxGeometry>
        </mxCell>
        <mxCell id="jgQcP7is1KuD3QYu7mgT-2330" value="" style="shape=mxgraph.cisco.routers.router;sketch=0;html=1;pointerEvents=1;dashed=0;fillColor=#036897;strokeColor=#ffffff;strokeWidth=2;verticalLabelPosition=bottom;verticalAlign=top;align=center;outlineConnect=0;" vertex="1" parent="1">
          <mxGeometry x="980" y="118.5" width="78" height="53" as="geometry" />
        </mxCell>
        <mxCell id="jgQcP7is1KuD3QYu7mgT-2334" value="bonding&lt;br&gt;" style="text;html=1;align=center;verticalAlign=middle;resizable=0;points=[];autosize=1;strokeColor=none;fillColor=none;" vertex="1" parent="1">
          <mxGeometry x="940" y="200" width="60" height="20" as="geometry" />
        </mxCell>
        <mxCell id="jgQcP7is1KuD3QYu7mgT-2336" value="" style="endArrow=classic;startArrow=classic;html=1;rounded=0;exitX=1;exitY=0.5;exitDx=0;exitDy=0;exitPerimeter=0;" edge="1" parent="1" source="jgQcP7is1KuD3QYu7mgT-2263" target="jgQcP7is1KuD3QYu7mgT-2330">
          <mxGeometry width="50" height="50" relative="1" as="geometry">
            <mxPoint x="800" y="195" as="sourcePoint" />
            <mxPoint x="850" y="145" as="targetPoint" />
          </mxGeometry>
        </mxCell>
        <mxCell id="jgQcP7is1KuD3QYu7mgT-2337" value="" style="endArrow=classic;startArrow=classic;html=1;rounded=0;" edge="1" parent="1" source="jgQcP7is1KuD3QYu7mgT-2264" target="jgQcP7is1KuD3QYu7mgT-2330">
          <mxGeometry width="50" height="50" relative="1" as="geometry">
            <mxPoint x="810" y="235" as="sourcePoint" />
            <mxPoint x="860" y="185" as="targetPoint" />
          </mxGeometry>
        </mxCell>
        <mxCell id="jgQcP7is1KuD3QYu7mgT-2338" value="" style="endArrow=classic;html=1;rounded=0;" edge="1" parent="1" target="jgQcP7is1KuD3QYu7mgT-2339">
          <mxGeometry width="50" height="50" relative="1" as="geometry">
            <mxPoint x="1058" y="140" as="sourcePoint" />
            <mxPoint x="1180" y="120" as="targetPoint" />
          </mxGeometry>
        </mxCell>
        <mxCell id="jgQcP7is1KuD3QYu7mgT-2339" value="internet&lt;br&gt;" style="ellipse;shape=cloud;whiteSpace=wrap;html=1;" vertex="1" parent="1">
          <mxGeometry x="1120" y="80" width="120" height="80" as="geometry" />
        </mxCell>
      </root>
    </mxGraphModel>
  </diagram>
</mxfile>
